<svg xmlns="http://www.w3.org/2000/svg" viewBox="0 0 554 467"><path fill-rule="evenodd" clip-rule="evenodd" d="M256.927 460.599C207.571 462.931 156.167 476.468 111.79 455.259C65.553 433.161 32.097 390.267 12.5337 343.796C-6.6261 298.284 1.09308 248.529 4.0835 199.413C7.34839 145.79 -9.38287 80.4032 30.8056 43.6927C71.6018 6.42725 138.713 33.5642 194.04 25.8959C239.474 19.5988 282.42 -8.70963 326.803 2.66757C371.57 14.1428 397.872 56.3382 431.965 86.885C470.993 121.852 523.678 146.258 541.433 194.97C560.374 246.935 558.866 309.117 530.316 356.718C502.393 403.276 444.817 422.38 393.302 441.955C349.644 458.543 303.723 458.387 256.927 460.599Z" /></svg>